<?xml version="1.0" encoding="iso-8859-1"?>
<!-- Uploaded to: SVG Repo, www.svgrepo.com, Generator: SVG Repo Mixer Tools -->
<svg height="800px" width="800px" version="1.1" id="Layer_1" xmlns="http://www.w3.org/2000/svg" xmlns:xlink="http://www.w3.org/1999/xlink" 
	 viewBox="0 0 512 512" xml:space="preserve">
<path style="fill:#7CDBC1;" d="M488.727,104.708H256H23.273c-7.23,0-13.689,3.297-17.959,8.468
	c-1.898,2.299-3.362,4.968-4.268,7.883C0.366,123.247,0,125.571,0,127.981v256.039c0,12.853,10.42,23.273,23.273,23.273H256h232.727
	c12.853,0,23.273-10.42,23.273-23.273V127.981C512,115.128,501.58,104.708,488.727,104.708z"/>
<path style="fill:#66B4BA;" d="M181.203,242.979v-1.136c0-6.847-2.655-8.187-7.239-8.187h-7.43v17.608h7.43
	C178.434,251.262,181.203,249.877,181.203,242.979z"/>
<path style="fill:#386468;" d="M157.203,297.1c5.232,0,9.331-3.806,9.331-8.667v-19.363h7.43c16.22,0,25.903-9.858,25.903-26.374
	v-0.946c0-16.457-9.613-26.281-25.715-26.281h-17.424c-0.121,0-0.24,0.005-0.362,0.011c-4.842,0.282-8.495,3.922-8.495,8.468v64.487
	C147.872,293.375,151.884,297.1,157.203,297.1z M166.533,233.656h7.43c4.585,0,7.239,1.34,7.239,8.187v1.136
	c0,6.896-2.769,8.284-7.239,8.284h-7.43V233.656z"/>
<polygon style="fill:#66B4BA;" points="230.893,263.099 237.2,263.099 234.058,252.642 "/>
<g>
	<path style="fill:#386468;" d="M256,261.273l-12.24-39.953c-1.3-3.899-5.097-6.42-9.675-6.42c-4.605,0-8.38,2.563-9.626,6.557
		l-19.726,64.09c-0.433,1.206-0.433,2.257-0.433,2.698c0,5.471,5.087,8.856,9.802,8.856c4.063,0,7.43-2.454,8.437-6.127
		l3.007-10.063h16.983l3.033,10.153c0.02,0.062,0.039,0.124,0.059,0.186c1.185,3.555,4.426,5.851,8.254,5.851
		c0.348,0,0.697-0.022,1.046-0.061c0.023-0.002,0.045-0.006,0.068-0.009c0.338-0.039,0.676-0.095,1.01-0.163V261.273z
		 M230.893,263.099l3.165-10.457l3.14,10.457H230.893z"/>
	<path style="fill:#386468;" d="M285.494,297.1c5.232,0,9.331-3.806,9.331-8.667v-64.487c0-4.833-4.011-8.479-9.331-8.479
		c-5.405,0-9.331,3.565-9.331,8.479v64.487C276.163,293.375,280.174,297.1,285.494,297.1z"/>
	<path style="fill:#386468;" d="M256,296.868c1.247-0.264,2.462-0.752,3.55-1.432c0.05-0.031,0.098-0.059,0.147-0.092
		c0.171-0.11,0.338-0.227,0.503-0.348c0.068-0.05,0.133-0.099,0.2-0.152c0.151-0.115,0.298-0.233,0.441-0.355
		c0.074-0.065,0.146-0.132,0.219-0.2c0.132-0.119,0.264-0.239,0.386-0.366c0.084-0.085,0.158-0.174,0.239-0.262
		c0.163-0.182,0.32-0.366,0.469-0.559c0.112-0.147,0.225-0.293,0.327-0.444c0.067-0.099,0.124-0.203,0.188-0.304
		c0.088-0.144,0.175-0.289,0.254-0.438c0.056-0.104,0.105-0.214,0.16-0.321c0.073-0.155,0.144-0.309,0.208-0.469
		c0.043-0.11,0.085-0.223,0.124-0.335c0.061-0.166,0.112-0.338,0.161-0.51c0.031-0.11,0.061-0.22,0.087-0.332
		c0.043-0.191,0.078-0.389,0.107-0.588c0.016-0.098,0.036-0.194,0.045-0.293c0.036-0.299,0.056-0.605,0.056-0.918
		c0-0.597-0.076-1.091-0.163-1.491c-0.045-0.303-0.112-0.602-0.203-0.894L256,261.273V296.868z"/>
	<path style="fill:#386468;" d="M321.37,297.1h16.761c16.279,0,25.997-9.896,25.997-26.47v-28.788
		c0-16.516-9.719-26.376-25.997-26.376H321.37c-5.075,0-9.048,3.725-9.048,8.479v64.582C312.322,293.336,316.295,297.1,321.37,297.1
		z M330.985,233.656h7.145c4.529,0,7.337,1.37,7.337,8.187v28.788c0,6.896-2.808,8.282-7.337,8.282h-7.145V233.656z"/>
</g>
<g>
	<path style="fill:#7CDBC1;" d="M262.153,293.102c-0.149,0.192-0.306,0.377-0.469,0.559
		C261.848,293.479,262.004,293.295,262.153,293.102z"/>
	<path style="fill:#7CDBC1;" d="M263.081,291.594c-0.053,0.107-0.102,0.217-0.16,0.321
		C262.979,291.811,263.03,291.703,263.081,291.594z"/>
	<path style="fill:#7CDBC1;" d="M263.66,289.949c-0.026,0.112-0.056,0.222-0.087,0.332
		C263.604,290.17,263.635,290.061,263.66,289.949z"/>
	<path style="fill:#7CDBC1;" d="M263.813,289.068c-0.011,0.099-0.031,0.197-0.045,0.293
		C263.784,289.264,263.803,289.168,263.813,289.068z"/>
	<path style="fill:#7CDBC1;" d="M262.668,292.354c-0.064,0.101-0.121,0.205-0.188,0.304
		C262.547,292.559,262.605,292.455,262.668,292.354z"/>
	<path style="fill:#7CDBC1;" d="M260.841,294.491c-0.143,0.123-0.292,0.24-0.441,0.355
		C260.551,294.731,260.696,294.613,260.841,294.491z"/>
	<path style="fill:#7CDBC1;" d="M256,296.868L256,296.868c1.249-0.264,2.462-0.751,3.55-1.432
		C258.462,296.115,257.247,296.604,256,296.868z"/>
	<path style="fill:#7CDBC1;" d="M261.446,293.923c-0.123,0.127-0.254,0.247-0.386,0.366
		C261.191,294.171,261.323,294.05,261.446,293.923z"/>
	<path style="fill:#7CDBC1;" d="M260.2,294.998c-0.164,0.119-0.332,0.236-0.503,0.348
		C259.868,295.234,260.035,295.119,260.2,294.998z"/>
	<path style="fill:#7CDBC1;" d="M263.413,290.792c-0.039,0.112-0.081,0.225-0.124,0.335
		C263.334,291.015,263.374,290.905,263.413,290.792z"/>
</g>
<g>
	<path style="fill:#66B4BA;" d="M0,127.981v256.039c0,12.853,10.42,23.273,23.273,23.273H256V296.868
		c-0.335,0.07-0.673,0.127-1.01,0.163c-0.023,0.003-0.045,0.008-0.068,0.009c-0.349,0.037-0.698,0.061-1.046,0.061
		c-3.829,0-7.07-2.296-8.254-5.851c-0.02-0.062-0.039-0.124-0.059-0.186l-3.033-10.153h-16.983l-3.007,10.063
		c-1.005,3.672-4.372,6.127-8.437,6.127c-4.715,0-9.802-3.385-9.802-8.856c0-0.441,0-1.493,0.433-2.698l19.726-64.09
		c1.246-3.992,5.021-6.557,9.626-6.557c4.579,0,8.375,2.521,9.675,6.42L256,261.273V104.708H23.273
		C10.42,104.708,0,115.128,0,127.981z M147.872,223.946c0-4.546,3.652-8.186,8.495-8.468c0.121-0.006,0.24-0.011,0.361-0.011h17.424
		c16.102,0,25.715,9.824,25.715,26.281v0.946c0,16.516-9.683,26.374-25.903,26.374h-7.43v19.363c0,4.861-4.099,8.667-9.331,8.667
		c-5.32,0-9.332-3.725-9.332-8.667v-64.486H147.872z"/>
	<path style="fill:#66B4BA;" d="M254.99,297.031c0.338-0.036,0.676-0.095,1.01-0.163l0,0
		C255.665,296.938,255.327,296.992,254.99,297.031z"/>
	<path style="fill:#66B4BA;" d="M254.922,297.04c-0.349,0.039-0.698,0.06-1.046,0.06C254.222,297.1,254.573,297.079,254.922,297.04z
		"/>
</g>
</svg>