<?xml version="1.0" encoding="utf-8"?><!-- Uploaded to: SVG Repo, www.svgrepo.com, Generator: SVG Repo Mixer Tools -->
<svg width="800px" height="800px" viewBox="0 0 32 32" fill="none" xmlns="http://www.w3.org/2000/svg">
<path d="M22 6.78049C25.01 8.74049 27 12.1395 27 16.0005C27 19.8605 25.01 23.2595 22 25.2195C20.28 26.3495 18.22 27.0005 16 27.0005C13.78 27.0005 11.72 26.3495 10 25.2195C6.99 23.2595 5 19.8605 5 16.0005C5 12.1395 6.99 8.74049 10 6.78049C11.72 5.65049 13.78 5.00049 16 5.00049C18.22 5.00049 20.28 5.65049 22 6.78049Z" fill="#FFC44D"/>
<path d="M22 25.2197V30.4997C22 30.7807 21.78 30.9997 21.5 30.9997H10.5C10.22 30.9997 10 30.7807 10 30.4997V25.2197C11.72 26.3497 13.78 26.9997 16 26.9997C18.22 26.9997 20.28 26.3497 22 25.2197ZM22 1.5V6.78C20.28 5.65 18.22 5 16 5C13.78 5 11.72 5.65 10 6.78V1.5C10 1.23 10.22 1 10.5 1H21.5C21.78 1 22 1.23 22 1.5Z" fill="#668077"/>
<path d="M16 9V16.005L19 19.002M10 3V1.505C10 1.229 10.224 1 10.5 1H21.5C21.776 1 22 1.229 22 1.505V3M22 29V30.505C22 30.781 21.776 31 21.5 31H10.5C10.224 31 10 30.781 10 30.505V29M27 16.0049C27 9.9299 22.075 5.0049 16 5.0049C9.925 5.0049 5 9.9299 5 16.0049C5 22.0799 9.925 27.0049 16 27.0049C22.075 27.0049 27 22.0799 27 16.0049Z" stroke="#000000" stroke-width="2" stroke-linecap="round" stroke-linejoin="round"/>
</svg>